{
    "asset": {
        "version": "2.0"
    },
    "accessors": [
        {
            "bufferView": 0,
            "componentType": 5126,
            "count": 2376,
            "type": "VEC3",
            "max": [
                596.2061767578125,
                7.039999961853027,
                -577.5025024414063
            ],
            "min": [
                0.26925063133239746,
                1.1200000047683716,
                -602.1221313476563
            ]
        },
        {
            "bufferView": 1,
            "componentType": 5126,
            "count": 2376,
            "type": "VEC2"
        },
        {
            "bufferView": 2,
            "componentType": 5125,
            "count": 2376,
            "type": "SCALAR"
        },
        {
            "bufferView": 3,
            "componentType": 5126,
            "count": 210,
            "type": "VEC3",
            "max": [
                0.2805740535259247,
                4.198599815368652,
                -577.81787109375
            ],
            "min": [
                -28.793798446655273,
                3.9251999855041504,
                -602.1221313476563
            ]
        },
        {
            "bufferView": 4,
            "componentType": 5126,
            "count": 210,
            "type": "VEC2"
        },
        {
            "bufferView": 5,
            "componentType": 5125,
            "count": 210,
            "type": "SCALAR"
        },
        {
            "bufferView": 6,
            "componentType": 5126,
            "count": 77142,
            "type": "VEC3",
            "max": [
                596.2061767578125,
                12.319999694824219,
                346.8558654785156
            ],
            "min": [
                -3.7937979698181152,
                -5.710000038146973,
                -577.81787109375
            ]
        },
        {
            "bufferView": 7,
            "componentType": 5126,
            "count": 77142,
            "type": "VEC2"
        },
        {
            "bufferView": 8,
            "componentType": 5125,
            "count": 77142,
            "type": "SCALAR"
        },
        {
            "bufferView": 9,
            "componentType": 5126,
            "count": 76590,
            "type": "VEC3",
            "max": [
                0.26925063133239746,
                11.260000228881836,
                346.6909484863281
            ],
            "min": [
                -598.7938232421875,
                -0.5799999833106995,
                -577.8295288085938
            ]
        },
        {
            "bufferView": 10,
            "componentType": 5126,
            "count": 76590,
            "type": "VEC2"
        },
        {
            "bufferView": 11,
            "componentType": 5125,
            "count": 76590,
            "type": "SCALAR"
        },
        {
            "bufferView": 12,
            "componentType": 5126,
            "count": 4536,
            "type": "VEC3",
            "max": [
                311.2062072753906,
                6.599999904632568,
                602.8778686523438
            ],
            "min": [
                -0.28028032183647156,
                4.210000038146973,
                346.6909484863281
            ]
        },
        {
            "bufferView": 13,
            "componentType": 5126,
            "count": 4536,
            "type": "VEC2"
        },
        {
            "bufferView": 14,
            "componentType": 5125,
            "count": 4536,
            "type": "SCALAR"
        },
        {
            "bufferView": 15,
            "componentType": 5126,
            "count": 37944,
            "type": "VEC3",
            "max": [
                -0.1615668684244156,
                12.180000305175781,
                602.8778686523438
            ],
            "min": [
                -598.7938232421875,
                3.509999990463257,
                346.4505920410156
            ]
        },
        {
            "bufferView": 16,
            "componentType": 5126,
            "count": 37944,
            "type": "VEC2"
        },
        {
            "bufferView": 17,
            "componentType": 5125,
            "count": 37944,
            "type": "SCALAR"
        }
    ],
    "bufferViews": [
        {
            "buffer": 0,
            "byteOffset": 0,
            "byteLength": 28512,
            "target": 34962
        },
        {
            "buffer": 0,
            "byteOffset": 28512,
            "byteLength": 19008,
            "target": 34962
        },
        {
            "buffer": 0,
            "byteOffset": 47520,
            "byteLength": 9504,
            "target": 34963
        },
        {
            "buffer": 0,
            "byteOffset": 57024,
            "byteLength": 2520,
            "target": 34962
        },
        {
            "buffer": 0,
            "byteOffset": 59544,
            "byteLength": 1680,
            "target": 34962
        },
        {
            "buffer": 0,
            "byteOffset": 61224,
            "byteLength": 840,
            "target": 34963
        },
        {
            "buffer": 0,
            "byteOffset": 62064,
            "byteLength": 925704,
            "target": 34962
        },
        {
            "buffer": 0,
            "byteOffset": 987768,
            "byteLength": 617136,
            "target": 34962
        },
        {
            "buffer": 0,
            "byteOffset": 1604904,
            "byteLength": 308568,
            "target": 34963
        },
        {
            "buffer": 0,
            "byteOffset": 1913472,
            "byteLength": 919080,
            "target": 34962
        },
        {
            "buffer": 0,
            "byteOffset": 2832552,
            "byteLength": 612720,
            "target": 34962
        },
        {
            "buffer": 0,
            "byteOffset": 3445272,
            "byteLength": 306360,
            "target": 34963
        },
        {
            "buffer": 0,
            "byteOffset": 3751632,
            "byteLength": 54432,
            "target": 34962
        },
        {
            "buffer": 0,
            "byteOffset": 3806064,
            "byteLength": 36288,
            "target": 34962
        },
        {
            "buffer": 0,
            "byteOffset": 3842352,
            "byteLength": 18144,
            "target": 34963
        },
        {
            "buffer": 0,
            "byteOffset": 3860496,
            "byteLength": 455328,
            "target": 34962
        },
        {
            "buffer": 0,
            "byteOffset": 4315824,
            "byteLength": 303552,
            "target": 34962
        },
        {
            "buffer": 0,
            "byteOffset": 4619376,
            "byteLength": 151776,
            "target": 34963
        }
    ],
    "buffers": [
        {
            "byteLength": 4771152,
            "uri": "533936_dem_6697_op.bin"
        }
    ],
    "images": [
        {
            "uri": "./textures/combined_map_mesh0_v0_p0.png"
        },
        {
            "uri": "./textures/combined_map_mesh1_v0_p0.png"
        },
        {
            "uri": "./textures/combined_map_mesh2_v0_p0.png"
        },
        {
            "uri": "./textures/combined_map_mesh3_v0_p0.png"
        },
        {
            "uri": "./textures/combined_map_mesh4_v0_p0.png"
        },
        {
            "uri": "./textures/combined_map_mesh5_v0_p0.png"
        }
    ],
    "materials": [
        {
            "pbrMetallicRoughness": {
                "baseColorFactor": [
                    0.5,
                    0.5,
                    0.5,
                    1.0
                ],
                "metallicFactor": 0.0
            }
        },
        {
            "pbrMetallicRoughness": {
                "baseColorFactor": [
                    0.5,
                    0.5,
                    0.5,
                    1.0
                ],
                "baseColorTexture": {
                    "index": 0
                },
                "metallicFactor": 0.0
            }
        },
        {
            "pbrMetallicRoughness": {
                "baseColorFactor": [
                    0.5,
                    0.5,
                    0.5,
                    1.0
                ],
                "baseColorTexture": {
                    "index": 1
                },
                "metallicFactor": 0.0
            }
        },
        {
            "pbrMetallicRoughness": {
                "baseColorFactor": [
                    0.5,
                    0.5,
                    0.5,
                    1.0
                ],
                "baseColorTexture": {
                    "index": 2
                },
                "metallicFactor": 0.0
            }
        },
        {
            "pbrMetallicRoughness": {
                "baseColorFactor": [
                    0.5,
                    0.5,
                    0.5,
                    1.0
                ],
                "baseColorTexture": {
                    "index": 3
                },
                "metallicFactor": 0.0
            }
        },
        {
            "pbrMetallicRoughness": {
                "baseColorFactor": [
                    0.5,
                    0.5,
                    0.5,
                    1.0
                ],
                "baseColorTexture": {
                    "index": 4
                },
                "metallicFactor": 0.0
            }
        },
        {
            "pbrMetallicRoughness": {
                "baseColorFactor": [
                    0.5,
                    0.5,
                    0.5,
                    1.0
                ],
                "baseColorTexture": {
                    "index": 5
                },
                "metallicFactor": 0.0
            }
        }
    ],
    "meshes": [
        {
            "primitives": [
                {
                    "attributes": {
                        "POSITION": 0,
                        "TEXCOORD_0": 1
                    },
                    "indices": 2,
                    "material": 1
                }
            ]
        },
        {
            "primitives": [
                {
                    "attributes": {
                        "TEXCOORD_0": 4,
                        "POSITION": 3
                    },
                    "indices": 5,
                    "material": 2
                }
            ]
        },
        {
            "primitives": [
                {
                    "attributes": {
                        "POSITION": 6,
                        "TEXCOORD_0": 7
                    },
                    "indices": 8,
                    "material": 3
                }
            ]
        },
        {
            "primitives": [
                {
                    "attributes": {
                        "POSITION": 9,
                        "TEXCOORD_0": 10
                    },
                    "indices": 11,
                    "material": 4
                }
            ]
        },
        {
            "primitives": [
                {
                    "attributes": {
                        "TEXCOORD_0": 13,
                        "POSITION": 12
                    },
                    "indices": 14,
                    "material": 5
                }
            ]
        },
        {
            "primitives": [
                {
                    "attributes": {
                        "TEXCOORD_0": 16,
                        "POSITION": 15
                    },
                    "indices": 17,
                    "material": 6
                }
            ]
        }
    ],
    "nodes": [
        {
            "children": [
                1,
                2,
                3,
                4,
                5,
                6
            ],
            "name": "LOD1"
        },
        {
            "mesh": 0,
            "name": "dem_da13920b-8a95-46e5-ada6-33b6323afbf4"
        },
        {
            "mesh": 1,
            "name": "dem_e53ef83e-c974-48ef-b2b9-cadb853a3d79"
        },
        {
            "mesh": 2,
            "name": "dem_fa2b4085-3ea7-47a9-aafe-ae6abe952f62"
        },
        {
            "mesh": 3,
            "name": "dem_521b9d8b-7767-4ea6-8525-1436702fb1de"
        },
        {
            "mesh": 4,
            "name": "dem_16e6a34f-30b8-485a-b790-1b9b5e2cb859"
        },
        {
            "mesh": 5,
            "name": "dem_e0fcdb90-3146-40ab-91ca-0bf19cd6b3fb"
        }
    ],
    "scenes": [
        {
            "nodes": [
                0
            ]
        }
    ],
    "textures": [
        {
            "source": 0
        },
        {
            "source": 1
        },
        {
            "source": 2
        },
        {
            "source": 3
        },
        {
            "source": 4
        },
        {
            "source": 5
        }
    ],
    "scene": 0
}