{
    "asset": {
        "version": "2.0"
    },
    "accessors": [
        {
            "bufferView": 0,
            "componentType": 5126,
            "count": 2577,
            "type": "VEC3",
            "max": [
                -190.88365173339844,
                15.810036659240723,
                563.4894409179688
            ],
            "min": [
                -308.27886962890625,
                4.453210830688477,
                382.9308776855469
            ]
        },
        {
            "bufferView": 1,
            "componentType": 5126,
            "count": 2577,
            "type": "VEC2"
        },
        {
            "bufferView": 2,
            "componentType": 5125,
            "count": 759,
            "type": "SCALAR"
        },
        {
            "bufferView": 2,
            "byteOffset": 3036,
            "componentType": 5125,
            "count": 390,
            "type": "SCALAR"
        },
        {
            "bufferView": 2,
            "byteOffset": 4596,
            "componentType": 5125,
            "count": 1428,
            "type": "SCALAR"
        },
        {
            "bufferView": 3,
            "componentType": 5126,
            "count": 1317,
            "type": "VEC3",
            "max": [
                -534.107421875,
                25.219715118408203,
                461.89569091796875
            ],
            "min": [
                -629.73291015625,
                6.680477142333984,
                334.0246276855469
            ]
        },
        {
            "bufferView": 4,
            "componentType": 5126,
            "count": 1317,
            "type": "VEC2"
        },
        {
            "bufferView": 5,
            "componentType": 5125,
            "count": 531,
            "type": "SCALAR"
        },
        {
            "bufferView": 5,
            "byteOffset": 2124,
            "componentType": 5125,
            "count": 48,
            "type": "SCALAR"
        },
        {
            "bufferView": 5,
            "byteOffset": 2316,
            "componentType": 5125,
            "count": 738,
            "type": "SCALAR"
        },
        {
            "bufferView": 6,
            "componentType": 5126,
            "count": 4824,
            "type": "VEC3",
            "max": [
                -193.81016540527344,
                29.36676025390625,
                979.9697875976563
            ],
            "min": [
                -528.55322265625,
                3.483717918395996,
                485.94256591796875
            ]
        },
        {
            "bufferView": 7,
            "componentType": 5126,
            "count": 4824,
            "type": "VEC2"
        },
        {
            "bufferView": 8,
            "componentType": 5125,
            "count": 1743,
            "type": "SCALAR"
        },
        {
            "bufferView": 8,
            "byteOffset": 6972,
            "componentType": 5125,
            "count": 84,
            "type": "SCALAR"
        },
        {
            "bufferView": 8,
            "byteOffset": 7308,
            "componentType": 5125,
            "count": 2487,
            "type": "SCALAR"
        },
        {
            "bufferView": 8,
            "byteOffset": 17256,
            "componentType": 5125,
            "count": 510,
            "type": "SCALAR"
        },
        {
            "bufferView": 9,
            "componentType": 5126,
            "count": 2784,
            "type": "VEC3",
            "max": [
                -271.9273376464844,
                13.508174896240234,
                759.3057861328125
            ],
            "min": [
                -634.855712890625,
                1.804947018623352,
                463.89959716796875
            ]
        },
        {
            "bufferView": 10,
            "componentType": 5126,
            "count": 2784,
            "type": "VEC2"
        },
        {
            "bufferView": 11,
            "componentType": 5125,
            "count": 1020,
            "type": "SCALAR"
        },
        {
            "bufferView": 11,
            "byteOffset": 4080,
            "componentType": 5125,
            "count": 264,
            "type": "SCALAR"
        },
        {
            "bufferView": 11,
            "byteOffset": 5136,
            "componentType": 5125,
            "count": 1500,
            "type": "SCALAR"
        },
        {
            "bufferView": 12,
            "componentType": 5126,
            "count": 195,
            "type": "VEC3",
            "max": [
                -217.82350158691406,
                11.9766263961792,
                519.4308471679688
            ],
            "min": [
                -292.83917236328125,
                4.472358226776123,
                411.18084716796875
            ]
        },
        {
            "bufferView": 13,
            "componentType": 5126,
            "count": 195,
            "type": "VEC2"
        },
        {
            "bufferView": 14,
            "componentType": 5125,
            "count": 144,
            "type": "SCALAR"
        },
        {
            "bufferView": 14,
            "byteOffset": 576,
            "componentType": 5125,
            "count": 51,
            "type": "SCALAR"
        },
        {
            "bufferView": 15,
            "componentType": 5126,
            "count": 429,
            "type": "VEC3",
            "max": [
                -556.041015625,
                23.31713104248047,
                423.48553466796875
            ],
            "min": [
                -617.956787109375,
                6.680477142333984,
                357.2082214355469
            ]
        },
        {
            "bufferView": 16,
            "componentType": 5126,
            "count": 429,
            "type": "VEC2"
        },
        {
            "bufferView": 17,
            "componentType": 5125,
            "count": 312,
            "type": "SCALAR"
        },
        {
            "bufferView": 17,
            "byteOffset": 1248,
            "componentType": 5125,
            "count": 117,
            "type": "SCALAR"
        },
        {
            "bufferView": 18,
            "componentType": 5126,
            "count": 762,
            "type": "VEC3",
            "max": [
                -208.76205444335938,
                21.367185592651367,
                960.0205688476563
            ],
            "min": [
                -504.8264465332031,
                3.483717918395996,
                526.6222534179688
            ]
        },
        {
            "bufferView": 19,
            "componentType": 5126,
            "count": 762,
            "type": "VEC2"
        },
        {
            "bufferView": 20,
            "componentType": 5125,
            "count": 561,
            "type": "SCALAR"
        },
        {
            "bufferView": 20,
            "byteOffset": 2244,
            "componentType": 5125,
            "count": 201,
            "type": "SCALAR"
        }
    ],
    "bufferViews": [
        {
            "buffer": 0,
            "byteOffset": 0,
            "byteLength": 30924,
            "target": 34962
        },
        {
            "buffer": 0,
            "byteOffset": 30924,
            "byteLength": 20616,
            "target": 34962
        },
        {
            "buffer": 0,
            "byteOffset": 51540,
            "byteLength": 10308,
            "target": 34963
        },
        {
            "buffer": 0,
            "byteOffset": 61848,
            "byteLength": 15804,
            "target": 34962
        },
        {
            "buffer": 0,
            "byteOffset": 77652,
            "byteLength": 10536,
            "target": 34962
        },
        {
            "buffer": 0,
            "byteOffset": 88188,
            "byteLength": 5268,
            "target": 34963
        },
        {
            "buffer": 0,
            "byteOffset": 93456,
            "byteLength": 57888,
            "target": 34962
        },
        {
            "buffer": 0,
            "byteOffset": 151344,
            "byteLength": 38592,
            "target": 34962
        },
        {
            "buffer": 0,
            "byteOffset": 189936,
            "byteLength": 19296,
            "target": 34963
        },
        {
            "buffer": 0,
            "byteOffset": 209232,
            "byteLength": 33408,
            "target": 34962
        },
        {
            "buffer": 0,
            "byteOffset": 242640,
            "byteLength": 22272,
            "target": 34962
        },
        {
            "buffer": 0,
            "byteOffset": 264912,
            "byteLength": 11136,
            "target": 34963
        },
        {
            "buffer": 0,
            "byteOffset": 276048,
            "byteLength": 2340,
            "target": 34962
        },
        {
            "buffer": 0,
            "byteOffset": 278388,
            "byteLength": 1560,
            "target": 34962
        },
        {
            "buffer": 0,
            "byteOffset": 279948,
            "byteLength": 780,
            "target": 34963
        },
        {
            "buffer": 0,
            "byteOffset": 280728,
            "byteLength": 5148,
            "target": 34962
        },
        {
            "buffer": 0,
            "byteOffset": 285876,
            "byteLength": 3432,
            "target": 34962
        },
        {
            "buffer": 0,
            "byteOffset": 289308,
            "byteLength": 1716,
            "target": 34963
        },
        {
            "buffer": 0,
            "byteOffset": 291024,
            "byteLength": 9144,
            "target": 34962
        },
        {
            "buffer": 0,
            "byteOffset": 300168,
            "byteLength": 6096,
            "target": 34962
        },
        {
            "buffer": 0,
            "byteOffset": 306264,
            "byteLength": 3048,
            "target": 34963
        }
    ],
    "buffers": [
        {
            "byteLength": 309312,
            "uri": "53393663_brid_6697_op.bin"
        }
    ],
    "images": [
        {
            "uri": "./textures/packed_image_Texture_304_BridgeConstructionElement_jpg_000000.png"
        },
        {
            "uri": "./textures/packed_image_Texture_304_WallSurface_jpg_000000.png"
        },
        {
            "uri": "./textures/packed_image_Texture_293_OuterFloorSurface_jpg_000000.png"
        },
        {
            "uri": "./textures/packed_image_Texture_308_OuterFloorSurface_jpg_000000.png"
        },
        {
            "uri": "./textures/Texture_299_WallSurface_jpg.jpg"
        }
    ],
    "materials": [
        {
            "pbrMetallicRoughness": {
                "baseColorFactor": [
                    0.5,
                    0.5,
                    0.5,
                    1.0
                ],
                "metallicFactor": 0.0
            }
        },
        {
            "pbrMetallicRoughness": {
                "baseColorFactor": [
                    0.5,
                    0.5,
                    0.5,
                    1.0
                ],
                "baseColorTexture": {
                    "index": 0
                },
                "metallicFactor": 0.0
            }
        },
        {
            "pbrMetallicRoughness": {
                "baseColorFactor": [
                    0.5,
                    0.5,
                    0.5,
                    1.0
                ],
                "baseColorTexture": {
                    "index": 1
                },
                "metallicFactor": 0.0
            }
        },
        {
            "pbrMetallicRoughness": {
                "baseColorFactor": [
                    0.5,
                    0.5,
                    0.5,
                    1.0
                ],
                "baseColorTexture": {
                    "index": 2
                },
                "metallicFactor": 0.0
            }
        },
        {
            "pbrMetallicRoughness": {
                "baseColorFactor": [
                    0.5,
                    0.5,
                    0.5,
                    1.0
                ],
                "baseColorTexture": {
                    "index": 3
                },
                "metallicFactor": 0.0
            }
        },
        {
            "pbrMetallicRoughness": {
                "baseColorFactor": [
                    0.5,
                    0.5,
                    0.5,
                    1.0
                ],
                "baseColorTexture": {
                    "index": 4
                },
                "metallicFactor": 0.0
            }
        }
    ],
    "meshes": [
        {
            "primitives": [
                {
                    "attributes": {
                        "POSITION": 0
                    },
                    "indices": 2,
                    "material": 0
                },
                {
                    "attributes": {
                        "TEXCOORD_0": 1,
                        "POSITION": 0
                    },
                    "indices": 3,
                    "material": 1
                },
                {
                    "attributes": {
                        "POSITION": 0,
                        "TEXCOORD_0": 1
                    },
                    "indices": 4,
                    "material": 2
                }
            ]
        },
        {
            "primitives": [
                {
                    "attributes": {
                        "POSITION": 5
                    },
                    "indices": 7,
                    "material": 0
                },
                {
                    "attributes": {
                        "TEXCOORD_0": 6,
                        "POSITION": 5
                    },
                    "indices": 8,
                    "material": 3
                },
                {
                    "attributes": {
                        "TEXCOORD_0": 6,
                        "POSITION": 5
                    },
                    "indices": 9,
                    "material": 1
                }
            ]
        },
        {
            "primitives": [
                {
                    "attributes": {
                        "POSITION": 10
                    },
                    "indices": 12,
                    "material": 0
                },
                {
                    "attributes": {
                        "POSITION": 10,
                        "TEXCOORD_0": 11
                    },
                    "indices": 13,
                    "material": 1
                },
                {
                    "attributes": {
                        "POSITION": 10,
                        "TEXCOORD_0": 11
                    },
                    "indices": 14,
                    "material": 2
                },
                {
                    "attributes": {
                        "POSITION": 10,
                        "TEXCOORD_0": 11
                    },
                    "indices": 15,
                    "material": 4
                }
            ]
        },
        {
            "primitives": [
                {
                    "attributes": {
                        "POSITION": 16
                    },
                    "indices": 18,
                    "material": 0
                },
                {
                    "attributes": {
                        "POSITION": 16,
                        "TEXCOORD_0": 17
                    },
                    "indices": 19,
                    "material": 4
                },
                {
                    "attributes": {
                        "POSITION": 16,
                        "TEXCOORD_0": 17
                    },
                    "indices": 20,
                    "material": 5
                }
            ]
        },
        {
            "primitives": [
                {
                    "attributes": {
                        "TEXCOORD_0": 22,
                        "POSITION": 21
                    },
                    "indices": 23,
                    "material": 1
                },
                {
                    "attributes": {
                        "POSITION": 21
                    },
                    "indices": 24,
                    "material": 0
                }
            ]
        },
        {
            "primitives": [
                {
                    "attributes": {
                        "TEXCOORD_0": 26,
                        "POSITION": 25
                    },
                    "indices": 27,
                    "material": 1
                },
                {
                    "attributes": {
                        "POSITION": 25
                    },
                    "indices": 28,
                    "material": 0
                }
            ]
        },
        {
            "primitives": [
                {
                    "attributes": {
                        "TEXCOORD_0": 30,
                        "POSITION": 29
                    },
                    "indices": 31,
                    "material": 2
                },
                {
                    "attributes": {
                        "POSITION": 29
                    },
                    "indices": 32,
                    "material": 0
                }
            ]
        }
    ],
    "nodes": [
        {
            "children": [
                1,
                2,
                3,
                4,
                5,
                6,
                7
            ],
            "name": "LOD2"
        },
        {
            "mesh": 0,
            "name": "brid_fddf3890-64dc-4825-bd7c-3758739d14cb"
        },
        {
            "mesh": 1,
            "name": "brid_8ca1ac6c-70ab-4c4d-8b90-b1ee88dc0d57"
        },
        {
            "mesh": 2,
            "name": "brid_e8e1fa2a-59f0-47f1-87a3-e047771369e2"
        },
        {
            "mesh": 3,
            "name": "brid_9a790a13-1149-4717-a8dd-27a4f002ed7b"
        },
        {
            "mesh": 4,
            "name": "brid_fddf3890-64dc-4825-bd7c-3758739d14cb_cons"
        },
        {
            "mesh": 5,
            "name": "brid_8ca1ac6c-70ab-4c4d-8b90-b1ee88dc0d57_cons"
        },
        {
            "mesh": 6,
            "name": "brid_e8e1fa2a-59f0-47f1-87a3-e047771369e2_cons"
        }
    ],
    "scenes": [
        {
            "nodes": [
                0
            ]
        }
    ],
    "textures": [
        {
            "source": 0
        },
        {
            "source": 1
        },
        {
            "source": 2
        },
        {
            "source": 3
        },
        {
            "source": 4
        }
    ],
    "scene": 0
}